P2
9 9
# portable graymap representing a sudoku solution
9 
1 2 3 4 5 6 7 8 9
9 1 2 3 4 5 6 7 8 
8 9 1 2 3 4 5 6 7  
7 8 9 1 2 3 4 5 6
6 7 8 9 1 2 3 4 5
5 6 7 8 9 1 2 3 4
4 5 6 7 8 9 1 2 3
3 4 5 6 7 8 9 1 2
2 3 4 5 6 7 8 9 1